<svg width="25" height="25" viewBox="0 0 25 25" fill="none" xmlns="http://www.w3.org/2000/svg">
<g clip-path="url(#clip0_0_70)" filter="url(#filter0_d_0_70)">
<path d="M11.2188 0V2.625L9.90625 3.28125L7.9375 1.3125L5.3125 3.9375L7.28125 5.90625L6.625 7.21875H4V11.1562H6.625L7.28125 12.4688L5.3125 14.4375L7.9375 17.0625L9.90625 15.0938L11.2188 15.75V18.375H15.1562V15.75L16.4688 15.0938L18.4375 17.0625L21.0625 14.4375L19.0938 12.4688L19.75 11.1562H22.375V7.21875H19.75L19.0938 5.90625L21.0625 3.9375L18.4375 1.3125L16.4688 3.28125L15.1562 2.625V0H11.2188Z" stroke="white" stroke-opacity="0.6" stroke-width="1.3125" stroke-linecap="round" stroke-linejoin="round"/>
<path d="M13.1875 11.8125C14.6372 11.8125 15.8125 10.6372 15.8125 9.1875C15.8125 7.73775 14.6372 6.5625 13.1875 6.5625C11.7378 6.5625 10.5625 7.73775 10.5625 9.1875C10.5625 10.6372 11.7378 11.8125 13.1875 11.8125Z" stroke="white" stroke-opacity="0.6" stroke-width="1.3125" stroke-linecap="round" stroke-linejoin="round"/>
</g>
<defs>
<filter id="filter0_d_0_70" x="-1.625" y="0" width="26.25" height="26.25" filterUnits="userSpaceOnUse" color-interpolation-filters="sRGB">
<feFlood flood-opacity="0" result="BackgroundImageFix"/>
<feColorMatrix in="SourceAlpha" type="matrix" values="0 0 0 0 0 0 0 0 0 0 0 0 0 0 0 0 0 0 127 0" result="hardAlpha"/>
<feOffset dy="2.625"/>
<feGaussianBlur stdDeviation="1.3125"/>
<feComposite in2="hardAlpha" operator="out"/>
<feColorMatrix type="matrix" values="0 0 0 0 0 0 0 0 0 0 0 0 0 0 0 0 0 0 0.25 0"/>
<feBlend mode="normal" in2="BackgroundImageFix" result="effect1_dropShadow_0_70"/>
<feBlend mode="normal" in="SourceGraphic" in2="effect1_dropShadow_0_70" result="shape"/>
</filter>
<clipPath id="clip0_0_70">
<rect width="21" height="21" fill="white" transform="translate(1)"/>
</clipPath>
</defs>
</svg>
