<svg width="22" height="22" viewBox="0 0 22 22" fill="none" xmlns="http://www.w3.org/2000/svg">
<path d="M4.125 4.125C4.125 3.39565 4.41473 2.69618 4.93046 2.18046C5.44618 1.66473 6.14565 1.375 6.875 1.375C7.60435 1.375 8.30382 1.66473 8.81954 2.18046C9.33527 2.69618 9.625 3.39565 9.625 4.125C9.625 4.85435 9.33527 5.55382 8.81954 6.06954C8.30382 6.58527 7.60435 6.875 6.875 6.875C6.14565 6.875 5.44618 6.58527 4.93046 6.06954C4.41473 5.55382 4.125 4.85435 4.125 4.125ZM13.4461 6.303L13.5039 6.347C14.0873 6.77945 14.818 6.96357 15.5367 6.8592C16.2554 6.75483 16.9036 6.37043 17.3399 5.7899C17.7761 5.20936 17.9651 4.47982 17.8655 3.76049C17.7658 3.04115 17.3857 2.39043 16.8081 1.95032C16.2304 1.51021 15.5022 1.31645 14.7822 1.41132C14.0622 1.5062 13.409 1.88201 12.9651 2.45673C12.5212 3.03146 12.3226 3.75844 12.4127 4.47903C12.5029 5.19962 12.8743 5.8553 13.4461 6.303ZM8.6185 8.25C8.7912 7.92298 9.02809 7.63414 9.315 7.40079C9.60191 7.16743 9.93294 6.99434 10.2883 6.89187C10.6436 6.7894 11.016 6.75966 11.3831 6.80442C11.7502 6.84919 12.1045 6.96754 12.4248 7.1524C12.7451 7.33726 13.0249 7.58483 13.2473 7.88029C13.4697 8.17576 13.6303 8.51305 13.7193 8.87199C13.8084 9.23094 13.8241 9.60416 13.7656 9.96932C13.7071 10.3345 13.5755 10.6841 13.3787 10.9973C13.0002 11.5997 12.403 12.032 11.7124 12.2033C11.0219 12.3746 10.2918 12.2716 9.67564 11.916C9.05943 11.5604 8.60503 10.9798 8.4079 10.2962C8.21077 9.61254 8.28626 8.87913 8.6185 8.25ZM3.4375 8.25H7.10875C6.86438 8.94789 6.81124 9.69847 6.95486 10.4238C7.09848 11.1492 7.43362 11.8229 7.9255 12.375H7.5625C6.8536 12.3749 6.16199 12.5939 5.58234 13.002C5.00269 13.4101 4.56332 13.9873 4.32437 14.6547C3.86283 14.4693 3.43069 14.2178 3.0415 13.9081C2.0075 13.0763 1.375 11.847 1.375 10.3125C1.375 9.76549 1.5923 9.24089 1.97909 8.85409C2.36589 8.4673 2.89049 8.25 3.4375 8.25ZM14.4375 12.375C15.1462 12.375 15.8376 12.594 16.417 13.0021C16.9964 13.4102 17.4356 13.9874 17.6742 14.6547C18.1418 14.4636 18.5749 14.2147 18.9585 13.9081C19.9925 13.0763 20.625 11.847 20.625 10.3125C20.625 9.76549 20.4077 9.24089 20.0209 8.85409C19.6341 8.4673 19.1095 8.25 18.5625 8.25H14.8912C15.0425 8.68038 15.125 9.14375 15.125 9.625C15.1263 10.6399 14.7521 11.6194 14.0745 12.375H14.4375ZM16.3446 15.026C16.445 15.268 16.5 15.5347 16.5 15.8125C16.5 17.347 15.8689 18.5763 14.8335 19.4081C13.8146 20.2262 12.4479 20.625 11 20.625C9.55212 20.625 8.18537 20.2262 7.1665 19.4081C6.1325 18.5763 5.5 17.347 5.5 15.8125C5.49927 15.5414 5.55213 15.2729 5.65552 15.0224C5.75891 14.7718 5.91081 14.5441 6.10247 14.3525C6.29414 14.1608 6.5218 14.0089 6.77236 13.9055C7.02292 13.8021 7.29145 13.7493 7.5625 13.75H14.4375C14.846 13.7499 15.2454 13.8711 15.5849 14.0983C15.9244 14.3255 16.1888 14.6484 16.3446 15.026Z" fill="#FFF9F9" fill-opacity="0.6"/>
</svg>
