<svg width="27" height="27" viewBox="0 0 27 27" fill="none" xmlns="http://www.w3.org/2000/svg">
<path d="M13.5 2.25C7.29002 2.25 2.25002 7.29 2.25002 13.5C2.25002 19.71 7.29002 24.75 13.5 24.75C19.71 24.75 24.75 19.71 24.75 13.5C24.75 7.29 19.71 2.25 13.5 2.25ZM13.5 22.5C8.53877 22.5 4.50002 18.4613 4.50002 13.5C4.50002 8.53875 8.53877 4.5 13.5 4.5C18.4613 4.5 22.5 8.53875 22.5 13.5C22.5 18.4613 18.4613 22.5 13.5 22.5ZM7.31252 19.6875L15.7613 15.7613L19.6875 7.3125L11.2388 11.2388L7.31252 19.6875ZM13.5 12.2625C14.1863 12.2625 14.7375 12.8138 14.7375 13.5C14.7375 14.1863 14.1863 14.7375 13.5 14.7375C12.8138 14.7375 12.2625 14.1863 12.2625 13.5C12.2625 12.8138 12.8138 12.2625 13.5 12.2625Z" fill="#FBF7F7" fill-opacity="0.6"/>
</svg>
