<svg width="21" height="21" viewBox="0 0 21 21" fill="none" xmlns="http://www.w3.org/2000/svg">
<path d="M17.3871 19.3156C17.3308 19.4836 19.7007 16.9006 19.7007 16.9006C19.4755 14.4865 18.346 11.8475 18.346 11.8475C16.4837 7.973 12.3632 6.6815 9.93612 8.75875C9.82264 8.81563 9.65286 8.87162 9.54026 8.92762C11.4034 6.34462 15.6365 6.5695 18.4031 9.77025C18.4031 9.77025 19.6453 11.2858 20.5478 13.5879C20.7739 12.8021 20.9437 11.9604 21 11.1178C19.5318 9.0965 17.8384 7.917 17.8384 7.917C14.339 5.55888 10.2176 6.4015 9.08897 9.3205C8.97549 9.48938 8.86289 9.65737 8.80659 9.82625C9.14527 6.6815 12.9271 4.71625 16.8786 6.06375C16.8786 6.06375 18.7981 6.79437 20.7739 8.36588C20.7739 8.25387 20.7176 8.14188 20.6613 7.973C20.4352 7.13125 20.1529 6.3455 19.7579 5.61487C17.4997 4.60425 15.4676 4.43625 15.4676 4.43625C11.1774 4.15538 7.95945 7.13125 8.63681 10.388V10.8369C7.16949 7.917 9.48395 4.15538 13.7179 3.36875C13.7179 3.36875 15.6937 3.03187 18.1208 3.36875C17.5042 2.70021 16.8021 2.11508 16.0324 1.62837C13.6044 1.90837 11.7984 2.751 11.7984 2.751C7.90315 4.66025 6.66102 8.9285 8.80659 11.3426C8.86289 11.5106 8.97549 11.6226 9.08809 11.7355C6.37864 9.93825 6.54842 5.50287 9.76546 2.639C9.76546 2.639 11.29 1.3475 13.5481 0.448875C12.5893 0.168875 11.6286 0 10.6698 0C8.74941 1.4595 7.67619 3.03187 7.67619 3.03187C5.24912 6.6815 6.26516 11.0057 9.42677 12.0164H9.48308C9.59568 12.0724 9.65198 12.1284 9.76458 12.1844C6.54754 12.0164 4.45916 8.08588 5.87018 3.9865C5.87018 3.9865 6.54754 2.19012 7.95857 0.336875C7.11231 0.56175 6.37864 0.842625 5.64498 1.29062C4.74154 3.53763 4.51546 5.44688 4.51546 5.44688C4.23308 9.76937 7.16861 12.971 10.3302 12.3533H10.5C10.6126 12.3533 10.7261 12.3533 10.8387 12.2964C7.95945 13.7568 4.29026 11.3986 3.44399 7.13125C3.44399 7.13125 3.10531 5.222 3.44399 2.80788C2.76663 3.48163 2.14557 4.21138 1.63711 5.10913C1.91949 7.46813 2.76663 9.2085 2.76663 9.2085C4.68524 13.139 8.91919 14.4305 11.3471 12.1844L11.4034 12.1284C11.516 12.0724 11.6286 12.0164 11.6849 11.9035C9.93524 14.6554 5.53238 14.5425 2.70945 11.2297C2.70945 11.2297 1.29842 9.37737 0.564762 7.24325C0.564762 7.18725 0 10.0511 0 10.0511C1.41103 11.7355 3.21791 13.139 3.21791 13.139C6.7182 15.4971 10.8387 14.5985 11.9673 11.6795C12.0936 11.5521 12.19 11.3985 12.2497 11.2297C11.911 14.3745 8.12923 16.3398 4.17766 14.9362C4.17766 14.9362 2.42707 14.2625 0.564762 12.8021C0.564762 12.8581 0.621062 12.971 0.621062 13.027C0.857229 13.8802 1.17875 14.7077 1.58081 15.4971C3.72549 16.3958 5.64498 16.5646 5.64498 16.5646C9.93524 16.8446 13.096 13.8696 12.4758 10.7249V10.2751C13.8305 13.195 11.5169 16.8446 7.33839 17.6864C7.33839 17.6864 5.47608 18.0241 3.16161 17.6864C3.71453 18.2854 4.34009 18.8139 5.02392 19.2596C7.45187 18.9788 9.25787 18.1361 9.25787 18.1361C13.0405 16.2837 14.339 12.1844 12.3632 9.71425C12.306 9.54537 12.1934 9.37738 12.0808 9.2085C14.6777 11.0618 14.5088 15.3851 11.29 18.1921C11.29 18.1921 9.71004 19.4836 7.39557 20.4382C8.29813 20.7191 9.25787 20.944 10.2176 21C12.1934 19.4836 13.3792 17.7992 13.3792 17.7992C15.8072 14.1505 14.7903 9.82625 11.6858 8.81563C11.5751 8.70864 11.4389 8.63128 11.29 8.59075C14.5642 8.75962 16.5963 12.6901 15.1852 16.7895C15.1852 16.7895 14.5079 18.7539 12.9271 20.7191C13.0405 20.7191 13.1531 20.6631 13.3229 20.6071C14.0963 20.3851 14.851 20.1034 15.5802 19.7645C16.54 17.4632 16.7097 15.442 16.7097 15.442C16.9912 11.1738 14.1692 8.029 11.0648 8.47875C10.9513 8.47875 10.7824 8.42275 10.6689 8.42275H10.5563C13.4355 7.18725 16.9921 9.48938 17.7821 13.6447C17.7821 13.6447 18.2905 15.61 17.8947 17.9673C17.8384 18.305 17.6695 18.8099 17.3871 19.3147V19.3156Z" fill="#FFF6F6" fill-opacity="0.6"/>
</svg>