<svg width="21" height="12" viewBox="0 0 21 12" fill="none" xmlns="http://www.w3.org/2000/svg">
<path d="M4.875 2.49996V0.16663H20.625V2.49996H4.875ZM4.875 7.16663V4.8333H20.625V7.16663H4.875ZM4.875 11.8333V9.49996H20.625V11.8333H4.875ZM1.5 2.49996C1.18125 2.49996 0.913879 2.38796 0.697879 2.16396C0.481879 1.93996 0.374254 1.66307 0.375004 1.3333C0.375004 1.00274 0.483004 0.725464 0.699004 0.501464C0.915004 0.277464 1.182 0.165852 1.5 0.16663C1.81875 0.16663 2.08613 0.27863 2.30213 0.50263C2.51813 0.72663 2.62575 1.00352 2.625 1.3333C2.625 1.66385 2.517 1.94113 2.301 2.16513C2.085 2.38913 1.818 2.50074 1.5 2.49996ZM1.5 7.16663C1.18125 7.16663 0.913879 7.05463 0.697879 6.83063C0.481879 6.60663 0.374254 6.32974 0.375004 5.99996C0.375004 5.66941 0.483004 5.39213 0.699004 5.16813C0.915004 4.94413 1.182 4.83252 1.5 4.8333C1.81875 4.8333 2.08613 4.9453 2.30213 5.1693C2.51813 5.3933 2.62575 5.67019 2.625 5.99996C2.625 6.33052 2.517 6.6078 2.301 6.8318C2.085 7.0558 1.818 7.16741 1.5 7.16663ZM1.5 11.8333C1.18125 11.8333 0.913879 11.7213 0.697879 11.4973C0.481879 11.2733 0.374254 10.9964 0.375004 10.6666C0.375004 10.3361 0.483004 10.0588 0.699004 9.8348C0.915004 9.6108 1.182 9.49919 1.5 9.49996C1.81875 9.49996 2.08613 9.61196 2.30213 9.83596C2.51813 10.06 2.62575 10.3369 2.625 10.6666C2.625 10.9972 2.517 11.2745 2.301 11.4985C2.085 11.7225 1.818 11.8341 1.5 11.8333Z" fill="white"/>
</svg>
